<?xml version="1.0" encoding="UTF-8"?><svg id="Layer_3" xmlns="http://www.w3.org/2000/svg" viewBox="0 0 235.79 939.67"><defs><style>.cls-1{stroke-width:2px;}.cls-1,.cls-2{fill:none;stroke:#03045e;stroke-miterlimit:10;}.cls-3{font-family:Alike-Regular, Alike;font-size:100px;}.cls-3,.cls-4{fill:#03045e;}.cls-2{stroke-width:6px;}.cls-5{fill:#ffa047;}</style></defs><g id="Layer_2"><path class="cls-5" d="M198.16,78.57c0,43.4-35.18,78.57-78.57,78.57S41.01,121.97,41.01,78.57,76.19,0,119.58,0s78.57,35.18,78.57,78.57ZM119.9,26.09c-29.16,0-52.81,23.64-52.81,52.81s23.64,52.81,52.81,52.81,52.81-23.64,52.81-52.81-23.64-52.81-52.81-52.81Z"/><g><rect class="cls-5" x="103.54" y="102.94" width="32.08" height="278.68"/><path d="M135.13,103.44V381.12h-31.08V103.44h31.08m1-1h-33.08V382.12h33.08V102.44h0Z"/></g><g><rect class="cls-4" x="111.81" y="79.07" width="15.54" height="22.99"/><path d="M126.85,79.57v21.99h-14.54v-21.99h14.54m1-1h-16.54v23.99h16.54v-23.99h0Z"/></g><rect class="cls-5" x="103.04" y="382.12" width="103.39" height="44.66"/><rect class="cls-5" x="136.13" y="320.91" width="44.66" height="36.39"/><g><polygon class="cls-4" points="103.76 382.62 135.41 382.62 119.58 425.34 103.76 382.62"/><path d="M134.69,383.12l-15.11,40.78-15.11-40.78h30.21m1.44-1h-33.08l16.54,44.66,16.54-44.66h0Z"/></g><path class="cls-2" d="M136.13,124.89c6.62,0,13.1-11.54,19.02-9.1,14.06,5.79,5.79,39.7,6.62,47.14,1.91,17.16,17.37,12.41,27.29,0"/><path class="cls-1" d="M112.29,441.71c15.62,8.52,36.95,22.24,35,35-2.88,18.87-54.2,19.83-56,36-2.27,20.41,77.7,35.7,77,58-.78,24.66-99.43,32.01-100,53-.68,25.16,140.5,38.34,141,65,.56,29.75-174.62,47.28-174,74,.65,27.87,191.72,28.59,197,67,2.95,21.45-52,54.96-232,109"/><text class="cls-3" transform="translate(59.36 604.56)"><tspan x="0" y="0">A</tspan></text><text class="cls-3" transform="translate(121.36 649.56)"><tspan x="0" y="0">W</tspan></text></g></svg>